<svg height="30.098" viewBox="0 0 125 30.098" width="125" xmlns="http://www.w3.org/2000/svg">
    <g data-name="Group 2" id="Group_2" transform="translate(-112.409 -57.176)">
        <path d="M115.77,81.72a15.194,15.194,0,0,1-2.781-13.743A14.575,14.575,0,0,1,123,57.8a15.054,15.054,0,1,1,4.873,29.461l0,.008H114.044a.867.867,0,0,1-.746-1.3Z" data-name="Path 1"
            fill="#1bc74e"
            id="Path_1" />
        <path d="M354.089,124.092a2.21,2.21,0,0,1,2.18,2.18,2.144,2.144,0,0,1-4.287,0A2.2,2.2,0,0,1,354.089,124.092Zm-1.78,7.847a1.744,1.744,0,0,1,3.488,0v11.044a1.744,1.744,0,0,1-3.488,0Z" data-name="Path 2"
            fill="#2a2e3a"
            id="Path_2" transform="translate(-205.982 -57.452)" />
        <path d="M403.424,124.746l8.973,17.474a1.788,1.788,0,0,1,.182.727,1.722,1.722,0,0,1-1.708,1.78,1.649,1.649,0,0,1-1.562-.944l-1.962-3.669h-9.772l-2,3.669a1.649,1.649,0,0,1-1.562.944,1.722,1.722,0,0,1-1.707-1.78,1.785,1.785,0,0,1,.182-.727l8.973-17.474a1.063,1.063,0,0,1,1.962,0ZM399.21,137.1h6.5l-3.27-6.03Z" data-name="Path 3"
            fill="#2a2e3a"
            id="Path_3" transform="translate(-240.629 -57.452)" />
        <path d="M663.3,181.823l-6.249-11.552a1.442,1.442,0,0,1-.145-.727,1.721,1.721,0,0,1,1.744-1.744,1.619,1.619,0,0,1,1.562.908l3.851,7.265,3.851-7.265a1.619,1.619,0,0,1,1.562-.908,1.721,1.721,0,0,1,1.744,1.744,1.442,1.442,0,0,1-.145.727l-6.248,11.552a.826.826,0,0,1-1.526,0Z" data-name="Path 4"
            fill="#2a2e3a"
            id="Path_4" transform="translate(-468.122 -95.058)" />
        <path d="M772.22,124.092a2.21,2.21,0,0,1,2.18,2.18,2.144,2.144,0,0,1-4.287,0A2.2,2.2,0,0,1,772.22,124.092Zm-1.78,7.847a1.744,1.744,0,0,1,3.488,0v11.044a1.744,1.744,0,0,1-3.488,0Z" data-name="Path 5"
            fill="#2a2e3a"
            id="Path_5" transform="translate(-565.487 -57.452)" />
        <path d="M811.274,182.332a.766.766,0,0,1-.654-.8c0-.109.036-.182.036-.291L817.051,171H812a1.55,1.55,0,0,1-1.562-1.562A1.59,1.59,0,0,1,812,167.8h9.736a.766.766,0,0,1,.654.8c0,.109-.036.182-.036.291l-6.43,10.353h5.086a1.49,1.49,0,0,1,1.526,1.526,1.52,1.52,0,0,1-1.526,1.562Z" data-name="Path 6"
            fill="#2a2e3a"
            id="Path_6" transform="translate(-600.064 -95.058)" />
        <path d="M907.689,182.26a7.2,7.2,0,1,1,7.24-7.181,1.679,1.679,0,0,1-1.634,1.686h-9.209a4.4,4.4,0,0,0,3.6,2.278,3.969,3.969,0,0,0,2.634-1.04,1.627,1.627,0,1,1,2.182,2.415A7.2,7.2,0,0,1,907.689,182.26Zm-3.6-8.846h7.2a3.954,3.954,0,0,0-7.2,0Z" data-name="Path 7"
            fill="#2a2e3a"
            id="Path_7" transform="translate(-677.52 -95.058)" />
        <path d="M552.028,124.092a1.724,1.724,0,0,0-1.676,1.811v5.425a7.213,7.213,0,1,0,.088,12.152,1.626,1.626,0,0,0,1.6,1.245,1.659,1.659,0,0,0,1.667-1.744V125.836A1.666,1.666,0,0,0,552.028,124.092Zm-5.516,17.159a3.823,3.823,0,1,1,3.823-3.823A3.828,3.828,0,0,1,546.511,141.251Z" data-name="Path 8"
            fill="#2a2e3a"
            id="Path_8" transform="translate(-367.003 -57.452)" />
    </g>
</svg>
