<svg width="140" height="32" viewBox="0 0 314 72" fill="none" xmlns="http://www.w3.org/2000/svg">
<path fill="#3BE1A4" d="M36 0C55.88 0 72 16.12 72 36C72 55.88 55.88 72 36 72C16.12 72 0 55.88 0 36C0 16.12 16.12 0 36 0ZM124 25C127.7 25 131.14 26.1172 134 28.0322V26.2002C134 25.9802 134.18 25.7998 134.4 25.7998H141.6C141.82 25.7998 142 25.9802 142 26.2002V59.7998C142 60.0198 141.82 60.2002 141.6 60.2002H138C136.341 60.2002 134.918 59.191 134.312 57.7529C131.392 59.7986 127.836 61 124 61C114.06 61 106 52.94 106 43C106 33.06 114.06 25 124 25ZM183.6 11.7998C183.82 11.7998 184 11.9802 184 12.2002V59.7998C184 60.0198 183.82 60.2002 183.6 60.2002H180C178.341 60.2002 176.918 59.191 176.312 57.7529C173.392 59.7986 169.836 61 166 61C156.06 61 148 52.94 148 43C148 33.06 156.06 25 166 25C169.7 25 173.14 26.1172 176 28.0322V12.2002C176 11.9802 176.18 11.7998 176.4 11.7998H183.6ZM293.95 25.1104C304.81 23.9104 314 32.38 314 43H314.01C314.01 44.1198 313.9 45.2097 313.71 46.2695C313.67 46.4595 313.5 46.5996 313.31 46.5996H287.29C287 46.5996 286.8 46.9002 286.92 47.1602C288.49 50.6001 291.96 53 296 53C297.69 53 299.28 52.5798 300.68 51.8398C302.27 50.9998 304.21 51.2202 305.48 52.4902L308.43 55.4404C308.59 55.6004 308.59 55.8595 308.43 56.0195C305.2 59.0995 300.82 61 296 61C285.38 61 276.91 51.8101 278.11 40.9502C279.02 32.6902 285.7 26.0204 293.95 25.1104ZM92.54 26.3799C93.62 26.7799 94.78 27 96 27C97.22 27 98.38 26.7799 99.46 26.3799C99.72 26.2899 100 26.47 100 26.75V59.79C100 60.02 99.8196 60.21 99.5996 60.21H92.4102C92.1902 60.21 92 60.0095 92 59.7695V26.75C92 26.47 92.28 26.2799 92.54 26.3799ZM228.54 26.3799C229.62 26.7799 230.78 27 232 27C233.22 27 234.38 26.7799 235.46 26.3799C235.72 26.2899 236 26.47 236 26.75V59.79C236 60.02 235.82 60.21 235.6 60.21H228.41C228.19 60.21 228 60.0095 228 59.7695V26.75C228 26.47 228.28 26.2799 228.54 26.3799ZM193.71 25.7998C195.33 25.7998 196.8 26.78 197.41 28.29L206 49.3896L214.59 28.29C215.2 26.79 216.66 25.7998 218.29 25.7998H223.4C223.68 25.8001 223.879 26.0898 223.77 26.3496L210.1 59.9502C210.04 60.0999 209.89 60.2 209.73 60.2002H202.27C202.11 60.2 201.96 60.0999 201.9 59.9502L188.23 26.3496C188.121 26.0898 188.32 25.8001 188.6 25.7998H193.71ZM272.4 25.7998C272.62 25.8 272.8 25.9803 272.8 26.2002V27.9297C272.8 29.2697 272.35 30.5699 271.52 31.6299L254.75 53H273.6C273.82 53 274 53.1804 274 53.4004V59.7998C274 60.0198 273.82 60.2002 273.6 60.2002H243.6C243.38 60.2 243.2 60.0197 243.2 59.7998V58.0703C243.2 56.7303 243.65 55.4301 244.48 54.3701L261.25 33H242.4C242.18 33 242 32.8196 242 32.5996V26.2002C242 25.9802 242.18 25.7998 242.4 25.7998H272.4ZM48.8301 45.3496C44.8501 45.7796 40.52 46.0098 36 46.0098C31.48 46.0098 27.1599 45.7696 23.1699 45.3496C20.95 45.1097 19.6604 47.7101 21.1504 49.3701C24.8004 53.44 30.1001 56 36 56C41.8999 56 47.1896 53.44 50.8496 49.3701C52.3396 47.7201 51.05 45.1097 48.8301 45.3496ZM124 33C118.48 33 114 37.48 114 43C114 48.52 118.48 53 124 53C129.52 53 134 48.52 134 43C134 37.48 129.52 33 124 33ZM166 33C160.48 33 156 37.48 156 43C156 48.52 160.48 53 166 53C171.52 53 176 48.52 176 43C176 37.48 171.52 33 166 33ZM296 33C291.97 33 288.5 35.3999 286.92 38.8398C286.8 39.0998 287 39.4004 287.29 39.4004H304.71C305 39.4004 305.2 39.0998 305.08 38.8398C303.51 35.3999 300.03 33 296 33ZM96 11C99.3137 11 102 13.6863 102 17C102 20.3137 99.3137 23 96 23C92.6863 23 90 20.3137 90 17C90 13.6863 92.6863 11 96 11ZM232 11C235.314 11 238 13.6863 238 17C238 20.3137 235.314 23 232 23C228.686 23 226 20.3137 226 17C226 13.6863 228.686 11 232 11Z"/>
</svg>
